<svg width="5" height="12" viewBox="0 0 5 12" fill="none" xmlns="http://www.w3.org/2000/svg">
<g clip-path="url(#clip0)">
<path d="M0.0288231 8.13649L2.39021 11.0967C2.42927 11.1456 2.51185 11.1456 2.55085 11.0967L4.91239 8.13634C4.9405 8.10093 4.94883 8.04811 4.93367 8.00222C4.93053 7.99266 4.92704 7.98526 4.92411 7.97981C4.90607 7.94641 4.87144 7.92549 4.83341 7.92549H0.10755C0.069728 7.92549 0.0348869 7.94631 0.0170038 7.97981C0.0139719 7.98536 0.0104775 7.99281 0.00754839 8.0017C-0.00771389 8.04811 0.000559599 8.10099 0.0288231 8.13649Z" fill="#2B2B2B"/>
</g>
<g clip-path="url(#clip1)">
<path d="M4.91235 3.86351L2.55097 0.903291C2.51191 0.854421 2.42933 0.854421 2.39033 0.903291L0.0287838 3.86366C0.000674451 3.89907 -0.00765051 3.95189 0.007509 3.99778C0.0106437 4.00734 0.0141383 4.01474 0.0170674 4.02019C0.0351047 4.05359 0.0697403 4.07451 0.107767 4.07451H4.83363C4.87145 4.07451 4.90629 4.05369 4.92417 4.02019C4.92721 4.01464 4.9307 4.00719 4.93363 3.9983C4.94889 3.95189 4.94062 3.89901 4.91235 3.86351Z" fill="#2B2B2B"/>
</g>
<rect x="1.41176" y="2.82352" width="2.11765" height="6.35294" fill="#2B2B2B"/>
<defs>
<clipPath id="clip0">
<rect width="4.94118" height="4.94118" fill="white" transform="translate(0 12) rotate(-90)"/>
</clipPath>
<clipPath id="clip1">
<rect width="4.94118" height="4.94118" fill="white" transform="translate(4.94118) rotate(90)"/>
</clipPath>
</defs>
</svg>
