<svg width="14" height="14" viewBox="0 0 14 14" fill="none" xmlns="http://www.w3.org/2000/svg">
<path d="M8.53654 6.99512L13.7676 1.7638C13.9115 1.61979 13.9909 1.42767 13.9912 1.2228C13.9912 1.01783 13.9118 0.825478 13.7676 0.681699L13.3092 0.223404C13.1651 0.0790557 12.973 0 12.7679 0C12.5632 0 12.371 0.0790557 12.2269 0.223404L6.99581 5.45439L1.76448 0.223404C1.62059 0.0790557 1.42835 0 1.22337 0C1.01862 0 0.826388 0.0790557 0.682496 0.223404L0.223859 0.681699C-0.0746195 0.980177 -0.0746195 1.46566 0.223859 1.7638L5.45507 6.99512L0.223859 12.2262C0.079852 12.3705 0.000568746 12.5626 0.000568746 12.7674C0.000568746 12.9723 0.079852 13.1644 0.223859 13.3085L0.682382 13.7668C0.826275 13.9111 1.01862 13.9902 1.22326 13.9902C1.42824 13.9902 1.62047 13.9111 1.76436 13.7668L6.99569 8.53574L12.2268 13.7668C12.3709 13.9111 12.563 13.9902 12.7678 13.9902H12.768C12.9729 13.9902 13.165 13.9111 13.3091 13.7668L13.7675 13.3085C13.9114 13.1645 13.9908 12.9723 13.9908 12.7674C13.9908 12.5626 13.9114 12.3705 13.7675 12.2263L8.53654 6.99512Z" fill="#929292"/>
</svg>
