<svg width="20" height="19" viewBox="0 0 20 19" fill="none" xmlns="http://www.w3.org/2000/svg">
<g clip-path="url(#clip0)">
<path d="M19.876 9.21471L14.7717 4.36559C14.6129 4.21481 14.3321 4.21481 14.1734 4.36559L13.0668 5.41688C12.9015 5.5739 12.9015 5.82843 13.0668 5.98545L16.7654 9.49879L13.067 13.0127C12.9017 13.1698 12.9017 13.4243 13.067 13.5813L14.1736 14.6326C14.253 14.708 14.3607 14.7506 14.4728 14.7506C14.5848 14.7506 14.6927 14.708 14.7721 14.6326L19.876 9.78368C20.0413 9.62646 20.0413 9.37173 19.876 9.21471Z" fill="#2B2B2B"/>
<path d="M6.93284 13.0127L3.23479 9.49918L6.93347 5.98584C7.01283 5.91045 7.05749 5.80831 7.05749 5.70156C7.05749 5.595 7.01304 5.49267 6.93347 5.41727L5.82685 4.36598C5.74749 4.29059 5.63977 4.24817 5.5276 4.24817C5.41544 4.24817 5.30772 4.29059 5.22836 4.36598L0.12381 9.2147C-0.0414736 9.37172 -0.0414736 9.62625 0.12381 9.78347L5.22815 14.6324C5.30751 14.7078 5.41523 14.7504 5.52739 14.7504C5.63956 14.7504 5.74728 14.7078 5.82664 14.6324L6.93326 13.5811C7.09854 13.4243 7.09854 13.1697 6.93284 13.0127Z" fill="#2B2B2B"/>
<path d="M12.9025 2.73427C12.8488 2.64058 12.7582 2.57102 12.6507 2.54086L11.7536 2.28935C11.5297 2.22622 11.2939 2.34826 11.2279 2.56117L7.06321 15.9597C7.03147 16.0621 7.04374 16.172 7.09729 16.2655C7.15083 16.3594 7.24162 16.4288 7.34913 16.4591L8.24623 16.7106C8.28623 16.7219 8.32665 16.7273 8.36623 16.7273C8.54887 16.7273 8.71754 16.6139 8.77192 16.4388L12.9366 3.04007C12.9684 2.93773 12.9563 2.82776 12.9025 2.73427Z" fill="#2B2B2B"/>
</g>
<defs>
<clipPath id="clip0">
<rect width="20" height="19" fill="white"/>
</clipPath>
</defs>
</svg>
