<svg width="27" height="29" viewBox="0 0 27 29" fill="none" xmlns="http://www.w3.org/2000/svg">
<path d="M5.5 21C5.368 21 5.258 20.956 5.17 20.868C5.082 20.78 5.038 20.67 5.038 20.538V7.844H1.342C1.21 7.844 1.1 7.8 1.012 7.712C0.924 7.624 0.88 7.514 0.88 7.382V5.732C0.88 5.6 0.924 5.49 1.012 5.402C1.1 5.314 1.21 5.27 1.342 5.27H11.418C11.55 5.27 11.66 5.314 11.748 5.402C11.836 5.49 11.88 5.6 11.88 5.732V7.382C11.88 7.514 11.836 7.624 11.748 7.712C11.66 7.8 11.55 7.844 11.418 7.844H7.722V20.538C7.722 20.67 7.678 20.78 7.59 20.868C7.502 20.956 7.392 21 7.26 21H5.5Z" fill="#2B2B2B"/>
<path d="M20.0408 10.5267L23.3861 14.7203C23.4415 14.7896 23.5585 14.7896 23.6137 14.7203L26.9592 10.5265C26.999 10.4763 27.0108 10.4015 26.9894 10.3365C26.9849 10.3229 26.98 10.3124 26.9758 10.3047C26.9503 10.2574 26.9012 10.2278 26.8473 10.2278H20.1524C20.0988 10.2278 20.0494 10.2573 20.0241 10.3047C20.0198 10.3126 20.0148 10.3231 20.0107 10.3357C19.9891 10.4015 20.0008 10.4764 20.0408 10.5267Z" fill="#2B2B2B"/>
<g clip-path="url(#clip0)">
<path d="M9.02882 17.1365L11.3902 20.0967C11.4293 20.1456 11.5118 20.1456 11.5509 20.0967L13.9124 17.1363C13.9405 17.1009 13.9488 17.0481 13.9337 17.0022C13.9305 16.9927 13.927 16.9853 13.9241 16.9798C13.9061 16.9464 13.8714 16.9255 13.8334 16.9255H9.10755C9.06973 16.9255 9.03489 16.9463 9.017 16.9798C9.01397 16.9854 9.01048 16.9928 9.00755 17.0017C8.99229 17.0481 9.00056 17.101 9.02882 17.1365Z" fill="#2B2B2B"/>
</g>
<g clip-path="url(#clip1)">
<path d="M13.9124 12.8635L11.551 9.90329C11.5119 9.85442 11.4293 9.85442 11.3903 9.90329L9.02878 12.8637C9.00067 12.8991 8.99235 12.9519 9.00751 12.9978C9.01064 13.0073 9.01414 13.0147 9.01707 13.0202C9.0351 13.0536 9.06974 13.0745 9.10777 13.0745H13.8336C13.8714 13.0745 13.9063 13.0537 13.9242 13.0202C13.9272 13.0146 13.9307 13.0072 13.9336 12.9983C13.9489 12.9519 13.9406 12.899 13.9124 12.8635Z" fill="#2B2B2B"/>
</g>
<rect x="10.4118" y="11.8235" width="2.11765" height="6.35294" fill="#2B2B2B"/>
<defs>
<clipPath id="clip0">
<rect width="4.94118" height="4.94118" fill="white" transform="translate(9 21) rotate(-90)"/>
</clipPath>
<clipPath id="clip1">
<rect width="4.94118" height="4.94118" fill="white" transform="translate(13.9412 9) rotate(90)"/>
</clipPath>
</defs>
</svg>
