<svg width="22" height="22" viewBox="0 0 22 22" fill="none" xmlns="http://www.w3.org/2000/svg">
<g clip-path="url(#clip0)">
<path d="M5.72874 16.9869C4.26122 16.9869 2.95584 16.0473 2.48183 14.6484L2.44977 14.543C2.33799 14.1725 2.29116 13.861 2.29116 13.5493V7.29922L0.0673001 14.7226C-0.218718 15.8145 0.433047 16.9464 1.5266 17.2481L15.7014 21.0442C15.8783 21.09 16.0553 21.112 16.2295 21.112C17.1424 21.112 17.9766 20.5061 18.2105 19.6131L19.0363 16.9869H5.72874Z" fill="#2B2B2B"/>
<path d="M8.24969 7.36166C9.26083 7.36166 10.083 6.53936 10.083 5.52823C10.083 4.51709 9.26083 3.69479 8.24969 3.69479C7.23856 3.69479 6.41626 4.51709 6.41626 5.52823C6.41626 6.53936 7.23856 7.36166 8.24969 7.36166Z" fill="#2B2B2B"/>
<path d="M19.7082 0.944733H5.95787C4.69479 0.944733 3.6662 1.97332 3.6662 3.23657V13.32C3.6662 14.5833 4.69479 15.6119 5.95787 15.6119H19.7082C20.9714 15.6119 22 14.5833 22 13.32V3.23657C22 1.97332 20.9714 0.944733 19.7082 0.944733V0.944733ZM5.95787 2.77817H19.7082C19.9613 2.77817 20.1666 2.98345 20.1666 3.23657V9.74414L17.2708 6.36514C16.9637 6.00493 16.519 5.8124 16.0415 5.80149C15.5667 5.80418 15.1212 6.015 14.8169 6.37991L11.4122 10.4664L10.303 9.35993C9.6761 8.73301 8.65573 8.73301 8.02965 9.35993L5.49963 11.8891V3.23657C5.49963 2.98345 5.70491 2.77817 5.95787 2.77817V2.77817Z" fill="#2B2B2B"/>
</g>
<defs>
<clipPath id="clip0">
<rect width="22" height="22" fill="white"/>
</clipPath>
</defs>
</svg>
