<svg width="24" height="19" viewBox="0 0 24 19" fill="none" xmlns="http://www.w3.org/2000/svg">
<path d="M3.94284 17.9252C3.67588 17.9252 3.42396 17.8613 3.18708 17.7335C2.9502 17.6056 2.76032 17.4308 2.61744 17.2089C2.6024 17.1901 2.59488 17.1638 2.59488 17.13C2.59488 17.0773 2.61556 17.036 2.65692 17.0059L2.96712 16.7747C2.99344 16.7559 3.01788 16.7465 3.04044 16.7465C3.0818 16.7465 3.11752 16.7671 3.1476 16.8085C3.24912 16.9551 3.37132 17.0717 3.5142 17.1582C3.65708 17.2409 3.79996 17.2823 3.94284 17.2823C4.0782 17.2823 4.20228 17.2484 4.31508 17.1807C4.43164 17.1131 4.52376 17.0209 4.59144 16.9044C4.65912 16.7841 4.69296 16.6543 4.69296 16.5152C4.69296 16.3197 4.62528 16.1505 4.48992 16.0076C4.35832 15.861 4.19852 15.7801 4.01052 15.7651L3.8526 15.9851C3.83004 16.0189 3.79808 16.0358 3.75672 16.0358C3.73416 16.0358 3.70972 16.0264 3.6834 16.0076L3.36192 15.7764C3.32808 15.7538 3.31116 15.7219 3.31116 15.6805C3.31116 15.6542 3.31868 15.6316 3.33372 15.6128L4.15152 14.4623H3.02916C2.99532 14.4623 2.96712 14.451 2.94456 14.4284C2.922 14.4059 2.91072 14.3777 2.91072 14.3438V13.9377C2.91072 13.9039 2.922 13.8757 2.94456 13.8531C2.96712 13.8306 2.99532 13.8193 3.02916 13.8193H4.69296C4.80576 13.8193 4.89788 13.855 4.96932 13.9265C5.04076 13.9979 5.07648 14.0825 5.07648 14.1803C5.07648 14.2667 5.05016 14.3438 4.99752 14.4115L4.4166 15.2067C4.69484 15.297 4.92232 15.4624 5.09904 15.7031C5.27576 15.9399 5.36412 16.2107 5.36412 16.5152C5.36412 16.7671 5.3002 17.0021 5.17236 17.2202C5.04452 17.4345 4.87156 17.6056 4.65348 17.7335C4.4354 17.8613 4.19852 17.9252 3.94284 17.9252Z" fill="#2B2B2B"/>
<path d="M3.01224 11.783C2.94456 11.783 2.88628 11.7604 2.8374 11.7153C2.79228 11.6664 2.76972 11.61 2.76972 11.5461V11.0949C2.76972 10.7978 2.8092 10.5647 2.88816 10.3955C2.96712 10.2226 3.08932 10.074 3.25476 9.94996C3.4202 9.82588 3.69844 9.64916 4.08948 9.4198C4.22484 9.34084 4.3226 9.25436 4.38276 9.16036C4.44668 9.0626 4.47864 8.95544 4.47864 8.83888C4.47864 8.68096 4.426 8.555 4.32072 8.461C4.2192 8.367 4.07632 8.32 3.89208 8.32C3.66648 8.32 3.43148 8.39144 3.18708 8.53432C3.16452 8.5456 3.14008 8.55124 3.11376 8.55124C3.06864 8.55124 3.0348 8.53056 3.01224 8.4892L2.82612 8.1508C2.81484 8.132 2.8092 8.1132 2.8092 8.0944C2.8092 8.05304 2.82612 8.02108 2.85996 7.99852C3.01036 7.897 3.17956 7.81804 3.36756 7.76164C3.55932 7.70524 3.75484 7.67704 3.95412 7.67704C4.33012 7.67704 4.6234 7.77856 4.83396 7.9816C5.04828 8.18464 5.15544 8.46288 5.15544 8.81632C5.15544 9.07576 5.09152 9.29572 4.96368 9.4762C4.83584 9.65292 4.62528 9.83528 4.332 10.0233C4.24176 10.0797 4.16656 10.1248 4.1064 10.1586C3.94472 10.2564 3.82064 10.3391 3.73416 10.4068C3.64768 10.4707 3.57624 10.5497 3.51984 10.6437C3.46344 10.7339 3.43524 10.8411 3.43524 10.9652V11.1287H4.90164C4.93548 11.1287 4.96368 11.14 4.98624 11.1626C5.0088 11.1851 5.02008 11.2133 5.02008 11.2472V11.6645C5.02008 11.6984 5.0088 11.7266 4.98624 11.7491C4.96368 11.7717 4.93548 11.783 4.90164 11.783H3.01224Z" fill="#2B2B2B"/>
<path d="M2.8656 5C2.83176 5 2.80356 4.98872 2.781 4.96616C2.75844 4.9436 2.74716 4.9154 2.74716 4.88156V4.48112C2.74716 4.44728 2.75844 4.41908 2.781 4.39652C2.80356 4.37396 2.83176 4.36268 2.8656 4.36268H3.50292V1.85288H3.02916C2.98404 1.85288 2.94456 1.83784 2.91072 1.80776C2.88064 1.77392 2.8656 1.73444 2.8656 1.68932V1.4186L3.77928 0.94484H3.99924C4.04436 0.94484 4.08196 0.96176 4.11204 0.9956C4.14588 1.02568 4.1628 1.06328 4.1628 1.1084V4.36268H4.80012C4.83396 4.36268 4.86216 4.37396 4.88472 4.39652C4.90728 4.41908 4.91856 4.44728 4.91856 4.48112V4.88156C4.91856 4.9154 4.90728 4.9436 4.88472 4.96616C4.86216 4.98872 4.83396 5 4.80012 5H2.8656Z" fill="#2B2B2B"/>
<path fill-rule="evenodd" clip-rule="evenodd" d="M22.3448 4.49492H9.10345C8.18898 4.49492 7.44827 3.75421 7.44827 2.83974C7.44827 1.92527 8.18898 1.18456 9.10345 1.18456H22.3448C23.2593 1.18456 24 1.92527 24 2.83974C24 3.75421 23.2593 4.49492 22.3448 4.49492ZM9.10345 7.80527H22.3448C23.2593 7.80527 24 8.54597 24 9.46045C24 10.3749 23.2593 11.1156 22.3448 11.1156H9.10345C8.18898 11.1156 7.44827 10.3749 7.44827 9.46045C7.44827 8.54597 8.18898 7.80527 9.10345 7.80527ZM9.10345 14.426H22.3448C23.2593 14.426 24 15.1666 24 16.0811C24 16.9956 23.2593 17.7363 22.3448 17.7363H9.10345C8.18898 17.7363 7.44827 16.9956 7.44827 16.0811C7.44827 15.1666 8.18898 14.426 9.10345 14.426Z" fill="#2B2B2B"/>
</svg>
