<svg width="21" height="21" viewBox="0 0 21 21" fill="none" xmlns="http://www.w3.org/2000/svg">
<path d="M18.7221 9.28288H17.6914L15.051 6.28656H17.6914C17.6914 2.82015 14.8713 0 11.4048 0C7.93843 0 5.11828 2.82015 5.11828 6.28656V9.28288H4.08756C3.48691 9.28288 3 9.76979 3 10.3704V19.9123C3 20.513 3.48691 20.9999 4.08756 20.9999H18.7221C19.3228 20.9999 19.8098 20.513 19.8098 19.9123V10.3705C19.8098 9.76986 19.3228 9.28288 18.7221 9.28288ZM7.75871 6.28656C7.75871 4.27608 9.39437 2.64042 11.4048 2.64042C13.4153 2.64042 15.051 4.27608 15.051 6.28656L17.6914 9.28288H15.051H7.75871V6.28656ZM12.5901 15.5032V17.4537C12.5901 18.1083 12.0594 18.6389 11.4048 18.6389C10.7502 18.6389 10.2196 18.1083 10.2196 17.4537V15.5032C9.77876 15.1534 9.49565 14.6135 9.49565 14.0069C9.49565 12.9525 10.3504 12.0977 11.4048 12.0977C12.4593 12.0977 13.314 12.9525 13.314 14.0069C13.314 14.6135 13.0309 15.1535 12.5901 15.5032Z" fill="#2B2B2B"/>
</svg>
