<svg width="21" height="21" viewBox="0 0 21 21" fill="none" xmlns="http://www.w3.org/2000/svg">
<g clip-path="url(#clip0)">
<path d="M17.8173 9.28288H16.7866V6.28656C16.7866 2.82015 13.9664 0 10.5 0C7.03359 0 4.21344 2.82015 4.21344 6.28656V9.28288H3.18272C2.58206 9.28288 2.09515 9.76979 2.09515 10.3704V19.9123C2.09515 20.513 2.58206 20.9999 3.18272 20.9999H17.8173C18.4179 20.9999 18.9049 20.513 18.9049 19.9123V10.3705C18.9049 9.76986 18.4179 9.28288 17.8173 9.28288V9.28288ZM6.85386 6.28656C6.85386 4.27608 8.48952 2.64042 10.5 2.64042C12.5105 2.64042 14.1461 4.27608 14.1461 6.28656V9.28288H6.85386V6.28656ZM11.6852 15.5032V17.4537C11.6852 18.1083 11.1546 18.6389 10.5 18.6389C9.8454 18.6389 9.31478 18.1083 9.31478 17.4537V15.5032C8.87391 15.1534 8.5908 14.6135 8.5908 14.0069C8.5908 12.9525 9.44557 12.0977 10.5 12.0977C11.5544 12.0977 12.4092 12.9525 12.4092 14.0069C12.4092 14.6135 12.1261 15.1535 11.6852 15.5032V15.5032Z" fill="#2B2B2B"/>
</g>
<defs>
<clipPath id="clip0">
<rect width="21" height="21" fill="white"/>
</clipPath>
</defs>
</svg>
