<svg width="21" height="21" viewBox="0 0 21 21" fill="none" xmlns="http://www.w3.org/2000/svg">
<g clip-path="url(#clip0)">
<path d="M20.5757 2.51954C20.5364 2.42013 20.4459 2.35017 20.3398 2.33719C20.234 2.32426 20.129 2.37035 20.067 2.45736C19.6984 2.97407 19.2148 3.1463 18.6546 3.34576C18.2029 3.50667 17.7358 3.67293 17.2309 4.03538C16.517 4.54796 16.1904 5.24667 16.3532 5.90892L16.3358 5.93123C16.0377 5.49873 15.7133 5.09869 15.371 4.74148C13.7693 3.07027 11.5313 2.06554 9.23064 1.98499C9.12928 1.98144 9.02627 1.97964 8.92448 1.97964C6.35548 1.97964 3.89655 3.12807 2.17824 5.13039C0.468912 7.12234 -0.288718 9.7154 0.0996978 12.2447C0.132171 12.4561 0.172811 12.6697 0.220598 12.8797C0.85237 15.6605 2.46597 17.7758 4.64772 18.6832C5.18552 18.907 5.72799 19.0203 6.25986 19.0203C7.5813 19.0203 8.73552 18.3135 9.42665 17.0812C9.68935 16.6123 9.85886 16.1274 9.93027 15.6398C9.97237 15.352 9.9436 15.0645 9.91569 14.7858C9.88696 14.499 9.85983 14.2279 9.90325 13.955C10.0028 13.3294 10.4397 12.9559 11.0722 12.9559C11.2522 12.9559 11.436 12.9855 11.6196 13.044C11.4047 13.4382 11.2094 13.8147 11.0388 14.1636C10.6773 14.9031 10.4279 15.5155 10.2974 15.9837C10.2169 16.2724 10.0032 17.0396 10.5244 17.4014C10.6899 17.5163 10.8998 17.5568 11.1182 17.5162C11.3151 17.4796 11.914 17.3684 13.6159 15.4309C14.0726 14.911 14.5648 14.3093 15.0793 13.6422C16.4 13.1974 17.4278 12.0905 17.6997 10.8185C17.7677 10.5005 17.7961 10.1602 17.784 9.80674C18.2785 9.04255 18.7122 8.3295 19.1487 7.56297C19.157 7.54819 19.1653 7.53244 19.1735 7.5163C19.8069 7.3428 20.3525 6.84982 20.6728 6.16044C21.1403 5.1543 21.1059 3.8612 20.5757 2.51954ZM13.4358 7.28384C13.2067 7.6477 12.8129 7.86495 12.3823 7.86495C12.1484 7.86495 11.9197 7.79879 11.7209 7.67357C11.4398 7.49652 11.2443 7.22064 11.1708 6.89673C11.0972 6.57283 11.154 6.23958 11.3311 5.95846C11.5603 5.59459 11.9541 5.37734 12.3848 5.37734C12.6187 5.37734 12.8473 5.4435 13.0461 5.56878C13.3272 5.74573 13.5226 6.02161 13.5962 6.34556C13.6698 6.66952 13.6128 7.00271 13.4358 7.28384ZM15.0501 9.53719C15.6789 8.61077 16.3438 7.6899 16.9754 6.87077C17.0778 6.96324 17.1922 7.05356 17.3163 7.1396C17.5217 7.28218 17.7367 7.39244 17.9562 7.46793C17.423 8.37981 16.8496 9.28323 16.1554 10.3057C15.0148 11.9863 13.8289 13.5474 12.816 14.7015C12.2502 15.3461 11.7551 15.8438 11.3736 16.152C11.5208 15.681 11.8023 15.0345 12.1939 14.2685C12.8943 12.8987 13.9086 11.2185 15.0501 9.53719ZM4.01084 9.52921C3.77696 9.52921 3.54824 9.46305 3.34937 9.33778C3.06829 9.16078 2.87291 8.885 2.79931 8.56099C2.72571 8.23704 2.78269 7.9038 2.95978 7.62267C3.1888 7.25885 3.58266 7.0416 4.01327 7.0416C4.2472 7.0416 4.47592 7.10776 4.67475 7.23304C5.25499 7.59851 5.4298 8.3679 5.06457 8.94805C4.83531 9.31196 4.4414 9.52921 4.01084 9.52921ZM2.70714 12.2678C2.93625 11.9039 3.33007 11.6866 3.76073 11.6866C3.99455 11.6866 4.22323 11.7529 4.42215 11.8781C4.70323 12.0551 4.89861 12.3309 4.97221 12.6549C5.04586 12.9787 4.98888 13.3119 4.81174 13.5931C4.58272 13.9569 4.18886 14.1742 3.75825 14.1742C3.52437 14.1742 3.2956 14.1081 3.09668 13.9828C2.8156 13.8057 2.62027 13.53 2.54672 13.206C2.47322 12.8821 2.53024 12.5489 2.70714 12.2678ZM6.69009 4.88139C6.9192 4.51752 7.31306 4.30027 7.74367 4.30027C7.97745 4.30027 8.20617 4.36644 8.405 4.49166C8.98529 4.85704 9.1601 5.62648 8.79483 6.20672C8.56562 6.57064 8.17176 6.78789 7.74114 6.78789C7.50732 6.78789 7.27859 6.72173 7.07977 6.59645C6.79874 6.4195 6.60341 6.14367 6.52981 5.81967C6.45611 5.49576 6.51309 5.16257 6.69009 4.88139Z" fill="#2B2B2B"/>
</g>
<defs>
<clipPath id="clip0">
<rect width="21" height="21" fill="white"/>
</clipPath>
</defs>
</svg>
