<svg width="23" height="23" viewBox="0 0 23 23" fill="none" xmlns="http://www.w3.org/2000/svg">
<g clip-path="url(#clip0)">
<path d="M21.8768 2.8922L20.1078 1.12322C19.3891 0.403419 18.4145 0 17.3976 0H2.63548C1.17973 0 0 1.17973 0 2.63548V20.3645C0 21.8203 1.17973 23 2.63548 23H20.3645C21.8203 23 23 21.8203 23 20.3645V5.60242C23 4.58554 22.5966 3.61095 21.8768 2.8922V2.8922ZM3.83327 5.98952V3.59375C3.83327 3.197 4.15527 2.875 4.55202 2.875H14.6145C15.0113 2.875 15.3333 3.197 15.3333 3.59375V5.98952C15.3333 6.38628 15.0113 6.70827 14.6145 6.70827H4.55202C4.15527 6.70827 3.83327 6.38628 3.83327 5.98952ZM11.5 19.1667C9.11861 19.1667 7.1875 17.2356 7.1875 14.8542C7.1875 12.4727 9.11861 10.5417 11.5 10.5417C13.8814 10.5417 15.8125 12.4727 15.8125 14.8542C15.8125 17.2356 13.8814 19.1667 11.5 19.1667Z" fill="#2B2B2B"/>
</g>
<defs>
<clipPath id="clip0">
<rect width="23" height="23" fill="white"/>
</clipPath>
</defs>
</svg>
