<svg width="23" height="23" viewBox="0 0 23 23" fill="none" xmlns="http://www.w3.org/2000/svg">
<path d="M0.649456 2.41886C1.0827 1.98571 1.60309 1.76926 2.21149 1.76926H20.7884C21.3966 1.76926 21.9173 1.98571 22.3504 2.41886C22.7834 2.85211 23 3.37259 23 3.9809V19.0195C23 19.6278 22.7834 20.1479 22.3504 20.5813C21.9173 21.0146 21.3966 21.2308 20.7884 21.2308H2.21149C1.60314 21.2308 1.08275 21.0146 0.649456 20.5813C0.216405 20.1479 -2.51853e-07 19.6275 -2.51853e-07 19.0195V3.9809C-2.51853e-07 3.37259 0.216405 2.85196 0.649456 2.41886ZM15.9229 19.019C15.9229 19.1484 15.9645 19.2541 16.0475 19.3371C16.1304 19.4199 16.2363 19.4611 16.3654 19.4611H20.7884C20.9173 19.4611 21.0234 19.4199 21.1063 19.3371C21.1893 19.2541 21.2307 19.1484 21.2307 19.019V16.365C21.2307 16.2358 21.1893 16.13 21.1063 16.0474C21.0234 15.9642 20.9173 15.9228 20.7884 15.9228H16.3653C16.2362 15.9228 16.1301 15.9642 16.0474 16.0474C15.9645 16.13 15.9229 16.2358 15.9229 16.365V19.019H15.9229ZM15.9229 13.7115C15.9229 13.8405 15.9645 13.9465 16.0475 14.0293C16.1304 14.1123 16.2363 14.1537 16.3654 14.1537H20.7884C20.9173 14.1537 21.0234 14.1123 21.1063 14.0293C21.1893 13.9465 21.2307 13.8405 21.2307 13.7115V11.0576C21.2307 10.9286 21.1893 10.8226 21.1063 10.7397C21.0234 10.6569 20.9173 10.6155 20.7884 10.6155H16.3653C16.2362 10.6155 16.1303 10.6569 16.0474 10.7397C15.9645 10.8226 15.9229 10.9286 15.9229 11.0576V13.7115H15.9229ZM15.9229 8.40384C15.9229 8.53291 15.9645 8.63879 16.0475 8.72177C16.1304 8.80451 16.2363 8.84609 16.3654 8.84609H20.7884C20.9173 8.84609 21.0234 8.80451 21.1063 8.72177C21.1893 8.63874 21.2307 8.53291 21.2307 8.40384V5.75C21.2307 5.62093 21.1893 5.51491 21.1063 5.43207C21.0234 5.34914 20.9173 5.30775 20.7884 5.30775H16.3653C16.2362 5.30775 16.1303 5.34914 16.0474 5.43207C15.9645 5.51491 15.9229 5.62093 15.9229 5.75V8.40384H15.9229ZM8.84597 19.019C8.84597 19.1484 8.88736 19.2541 8.97005 19.3371C9.05288 19.4199 9.15886 19.4611 9.28812 19.4611H13.7115C13.8405 19.4611 13.9465 19.4199 14.0295 19.3371C14.1124 19.2541 14.1538 19.1484 14.1538 19.019V16.365C14.1538 16.2358 14.1124 16.13 14.0295 16.0474C13.9465 15.9642 13.8405 15.9228 13.7115 15.9228H9.28831C9.1591 15.9228 9.05308 15.9642 8.97024 16.0474C8.88775 16.13 8.84631 16.2358 8.84631 16.365V19.0189H8.84597V19.019ZM8.84597 13.7115C8.84597 13.8405 8.88736 13.9465 8.97005 14.0293C9.05288 14.1123 9.15886 14.1537 9.28812 14.1537H13.7115C13.8405 14.1537 13.9465 14.1123 14.0295 14.0293C14.1124 13.9465 14.1538 13.8405 14.1538 13.7115V11.0576C14.1538 10.9286 14.1124 10.8226 14.0295 10.7397C13.9465 10.6569 13.8405 10.6155 13.7115 10.6155H9.28831C9.1591 10.6155 9.05308 10.6569 8.97024 10.7397C8.88775 10.8226 8.84631 10.9286 8.84631 11.0576V13.7115H8.84597ZM8.84597 8.40384C8.84597 8.53291 8.88736 8.63879 8.97005 8.72177C9.05288 8.80451 9.15886 8.84609 9.28812 8.84609H13.7115C13.8405 8.84609 13.9465 8.80451 14.0295 8.72177C14.1124 8.63874 14.1538 8.53291 14.1538 8.40384V5.75C14.1538 5.62093 14.1124 5.51491 14.0295 5.43207C13.9465 5.34914 13.8405 5.30775 13.7115 5.30775H9.28831C9.1591 5.30775 9.05308 5.34914 8.97024 5.43207C8.88775 5.51491 8.84631 5.62093 8.84631 5.75V8.40384H8.84597V8.40384ZM1.76929 19.019C1.76929 19.1484 1.81068 19.2541 1.89332 19.3371C1.9765 19.4199 2.08252 19.4611 2.21144 19.4611H6.63414C6.76354 19.4611 6.86952 19.4199 6.95221 19.3371C7.03504 19.2541 7.07614 19.1484 7.07614 19.019V16.365C7.07614 16.2358 7.03504 16.13 6.95221 16.0474C6.86952 15.9642 6.76354 15.9228 6.63414 15.9228H2.21144C2.08252 15.9228 1.97645 15.9642 1.89332 16.0474C1.81068 16.13 1.76929 16.2358 1.76929 16.365V19.019ZM1.76929 13.7115C1.76929 13.8405 1.81068 13.9465 1.89332 14.0293C1.9765 14.1123 2.08252 14.1537 2.21144 14.1537H6.63414C6.76354 14.1537 6.86952 14.1123 6.95221 14.0293C7.03504 13.9465 7.07614 13.8405 7.07614 13.7115V11.0576C7.07614 10.9286 7.03504 10.8226 6.95221 10.7397C6.86952 10.6569 6.76354 10.6155 6.63414 10.6155H2.21144C2.08252 10.6155 1.97645 10.6569 1.89332 10.7397C1.81068 10.8226 1.76929 10.9286 1.76929 11.0576V13.7115ZM1.76929 8.40384C1.76929 8.53291 1.81068 8.63879 1.89332 8.72177C1.9765 8.80451 2.08252 8.84609 2.21144 8.84609H6.63414C6.76354 8.84609 6.86952 8.80451 6.95221 8.72177C7.03504 8.63874 7.07614 8.53291 7.07614 8.40384V5.75C7.07614 5.62093 7.03504 5.51491 6.95221 5.43207C6.86952 5.34914 6.76354 5.30775 6.63414 5.30775H2.21144C2.08252 5.30775 1.97645 5.34914 1.89332 5.43207C1.81068 5.51491 1.76929 5.62093 1.76929 5.75V8.40384Z" fill="#2B2B2B"/>
</svg>
