<svg width="23" height="18" viewBox="0 0 23 18" fill="none" xmlns="http://www.w3.org/2000/svg">
<path d="M2.37934 0C1.06514 0 0 1.06514 0 2.3793C0 3.69345 1.06514 4.75863 2.37934 4.75863C3.69349 4.75863 4.75863 3.69349 4.75863 2.3793C4.75863 1.0651 3.69349 0 2.37934 0ZM2.37934 6.34481C1.06514 6.34481 0 7.40998 0 8.72414C0 10.0383 1.06514 11.1035 2.37934 11.1035C3.69349 11.1035 4.75863 10.0383 4.75863 8.72414C4.75863 7.40998 3.69349 6.34481 2.37934 6.34481ZM2.37934 12.6897C1.06514 12.6897 0 13.7548 0 15.0689C0 16.3831 1.06514 17.4483 2.37934 17.4483C3.69349 17.4483 4.75863 16.3831 4.75863 15.0689C4.75863 13.7548 3.69349 12.6897 2.37934 12.6897ZM8.72414 3.96551H21.4138C22.2902 3.96551 23 3.25566 23 2.3793C23 1.50293 22.2902 0.793086 21.4138 0.793086H8.72414C7.84777 0.793086 7.13793 1.50293 7.13793 2.3793C7.13793 3.25566 7.84777 3.96551 8.72414 3.96551ZM21.4138 7.13793H8.72414C7.84777 7.13793 7.13793 7.84777 7.13793 8.72414C7.13793 9.60051 7.84777 10.3104 8.72414 10.3104H21.4138C22.2902 10.3104 23 9.60051 23 8.72414C23 7.84777 22.2902 7.13793 21.4138 7.13793ZM21.4138 13.4828H8.72414C7.84777 13.4828 7.13793 14.1926 7.13793 15.0689C7.13793 15.9453 7.84777 16.6552 8.72414 16.6552H21.4138C22.2902 16.6552 23 15.9453 23 15.0689C23 14.1926 22.2902 13.4828 21.4138 13.4828Z" fill="#2B2B2B"/>
</svg>
